<mxfile host="app.diagrams.net" modified="2023-10-14T22:30:21.125Z" agent="Mozilla/5.0 (Windows NT 10.0; Win64; x64) AppleWebKit/537.36 (KHTML, like Gecko) Chrome/117.0.0.0 Safari/537.36 Edg/117.0.2045.60" etag="ekBNrvm9V-xcPrf5vl0y" version="22.0.4" type="github">
  <diagram id="C5RBs43oDa-KdzZeNtuy" name="Page-1">
    <mxGraphModel dx="706" dy="792" grid="1" gridSize="10" guides="1" tooltips="1" connect="1" arrows="1" fold="1" page="1" pageScale="1" pageWidth="827" pageHeight="1169" math="0" shadow="0">
      <root>
        <mxCell id="WIyWlLk6GJQsqaUBKTNV-0" />
        <mxCell id="WIyWlLk6GJQsqaUBKTNV-1" parent="WIyWlLk6GJQsqaUBKTNV-0" />
        <mxCell id="cfC-acPJ0kE-Bvzq7KKX-2" value="" style="edgeStyle=orthogonalEdgeStyle;rounded=0;orthogonalLoop=1;jettySize=auto;html=1;" edge="1" parent="WIyWlLk6GJQsqaUBKTNV-1" source="cfC-acPJ0kE-Bvzq7KKX-0" target="cfC-acPJ0kE-Bvzq7KKX-1">
          <mxGeometry relative="1" as="geometry" />
        </mxCell>
        <mxCell id="cfC-acPJ0kE-Bvzq7KKX-0" value="inicio&amp;nbsp;" style="ellipse;whiteSpace=wrap;html=1;" vertex="1" parent="WIyWlLk6GJQsqaUBKTNV-1">
          <mxGeometry x="330" y="10" width="150" height="80" as="geometry" />
        </mxCell>
        <mxCell id="cfC-acPJ0kE-Bvzq7KKX-4" value="" style="edgeStyle=orthogonalEdgeStyle;rounded=0;orthogonalLoop=1;jettySize=auto;html=1;" edge="1" parent="WIyWlLk6GJQsqaUBKTNV-1" source="cfC-acPJ0kE-Bvzq7KKX-1" target="cfC-acPJ0kE-Bvzq7KKX-3">
          <mxGeometry relative="1" as="geometry" />
        </mxCell>
        <mxCell id="cfC-acPJ0kE-Bvzq7KKX-1" value="Digita una letra" style="rounded=0;whiteSpace=wrap;html=1;" vertex="1" parent="WIyWlLk6GJQsqaUBKTNV-1">
          <mxGeometry x="335" y="120" width="140" height="30" as="geometry" />
        </mxCell>
        <mxCell id="cfC-acPJ0kE-Bvzq7KKX-6" value="" style="edgeStyle=orthogonalEdgeStyle;rounded=0;orthogonalLoop=1;jettySize=auto;html=1;" edge="1" parent="WIyWlLk6GJQsqaUBKTNV-1" source="cfC-acPJ0kE-Bvzq7KKX-3" target="cfC-acPJ0kE-Bvzq7KKX-5">
          <mxGeometry relative="1" as="geometry" />
        </mxCell>
        <mxCell id="cfC-acPJ0kE-Bvzq7KKX-3" value="a" style="shape=parallelogram;perimeter=parallelogramPerimeter;whiteSpace=wrap;html=1;fixedSize=1;" vertex="1" parent="WIyWlLk6GJQsqaUBKTNV-1">
          <mxGeometry x="360" y="170" width="90" height="30" as="geometry" />
        </mxCell>
        <mxCell id="cfC-acPJ0kE-Bvzq7KKX-9" style="edgeStyle=orthogonalEdgeStyle;rounded=0;orthogonalLoop=1;jettySize=auto;html=1;exitX=0;exitY=0.5;exitDx=0;exitDy=0;" edge="1" parent="WIyWlLk6GJQsqaUBKTNV-1" source="cfC-acPJ0kE-Bvzq7KKX-5" target="cfC-acPJ0kE-Bvzq7KKX-8">
          <mxGeometry relative="1" as="geometry" />
        </mxCell>
        <mxCell id="cfC-acPJ0kE-Bvzq7KKX-10" value="" style="edgeStyle=orthogonalEdgeStyle;rounded=0;orthogonalLoop=1;jettySize=auto;html=1;" edge="1" parent="WIyWlLk6GJQsqaUBKTNV-1" source="cfC-acPJ0kE-Bvzq7KKX-5" target="cfC-acPJ0kE-Bvzq7KKX-7">
          <mxGeometry relative="1" as="geometry" />
        </mxCell>
        <mxCell id="cfC-acPJ0kE-Bvzq7KKX-5" value="letra==&#39;a&#39; or letra==&#39;e&#39; or letra==&#39;i&#39; or letra==&#39;o&#39; letra==&#39;u&#39;" style="rhombus;whiteSpace=wrap;html=1;" vertex="1" parent="WIyWlLk6GJQsqaUBKTNV-1">
          <mxGeometry x="255" y="240" width="300" height="160" as="geometry" />
        </mxCell>
        <mxCell id="cfC-acPJ0kE-Bvzq7KKX-14" value="" style="edgeStyle=orthogonalEdgeStyle;rounded=0;orthogonalLoop=1;jettySize=auto;html=1;" edge="1" parent="WIyWlLk6GJQsqaUBKTNV-1" source="cfC-acPJ0kE-Bvzq7KKX-7" target="cfC-acPJ0kE-Bvzq7KKX-11">
          <mxGeometry relative="1" as="geometry" />
        </mxCell>
        <mxCell id="cfC-acPJ0kE-Bvzq7KKX-7" value="no" style="text;html=1;strokeColor=none;fillColor=none;align=center;verticalAlign=middle;whiteSpace=wrap;rounded=0;" vertex="1" parent="WIyWlLk6GJQsqaUBKTNV-1">
          <mxGeometry x="590" y="305" width="20" height="30" as="geometry" />
        </mxCell>
        <mxCell id="cfC-acPJ0kE-Bvzq7KKX-13" value="" style="edgeStyle=orthogonalEdgeStyle;rounded=0;orthogonalLoop=1;jettySize=auto;html=1;" edge="1" parent="WIyWlLk6GJQsqaUBKTNV-1" source="cfC-acPJ0kE-Bvzq7KKX-8" target="cfC-acPJ0kE-Bvzq7KKX-12">
          <mxGeometry relative="1" as="geometry" />
        </mxCell>
        <mxCell id="cfC-acPJ0kE-Bvzq7KKX-8" value="si" style="text;html=1;strokeColor=none;fillColor=none;align=center;verticalAlign=middle;whiteSpace=wrap;rounded=0;" vertex="1" parent="WIyWlLk6GJQsqaUBKTNV-1">
          <mxGeometry x="200" y="305" width="20" height="30" as="geometry" />
        </mxCell>
        <mxCell id="cfC-acPJ0kE-Bvzq7KKX-18" style="edgeStyle=orthogonalEdgeStyle;rounded=0;orthogonalLoop=1;jettySize=auto;html=1;exitX=0.5;exitY=1;exitDx=0;exitDy=0;entryX=1;entryY=0.5;entryDx=0;entryDy=0;" edge="1" parent="WIyWlLk6GJQsqaUBKTNV-1" source="cfC-acPJ0kE-Bvzq7KKX-11" target="cfC-acPJ0kE-Bvzq7KKX-16">
          <mxGeometry relative="1" as="geometry">
            <mxPoint x="500" y="520" as="targetPoint" />
            <Array as="points">
              <mxPoint x="600" y="520" />
            </Array>
          </mxGeometry>
        </mxCell>
        <mxCell id="cfC-acPJ0kE-Bvzq7KKX-11" value="es consonante" style="rounded=0;whiteSpace=wrap;html=1;" vertex="1" parent="WIyWlLk6GJQsqaUBKTNV-1">
          <mxGeometry x="540" y="400" width="120" height="30" as="geometry" />
        </mxCell>
        <mxCell id="cfC-acPJ0kE-Bvzq7KKX-20" style="edgeStyle=orthogonalEdgeStyle;rounded=0;orthogonalLoop=1;jettySize=auto;html=1;exitX=0.5;exitY=1;exitDx=0;exitDy=0;entryX=0;entryY=0.5;entryDx=0;entryDy=0;" edge="1" parent="WIyWlLk6GJQsqaUBKTNV-1" source="cfC-acPJ0kE-Bvzq7KKX-12" target="cfC-acPJ0kE-Bvzq7KKX-16">
          <mxGeometry relative="1" as="geometry">
            <mxPoint x="230" y="520" as="targetPoint" />
            <Array as="points">
              <mxPoint x="210" y="520" />
            </Array>
          </mxGeometry>
        </mxCell>
        <mxCell id="cfC-acPJ0kE-Bvzq7KKX-12" value="es vocal" style="rounded=0;whiteSpace=wrap;html=1;" vertex="1" parent="WIyWlLk6GJQsqaUBKTNV-1">
          <mxGeometry x="145" y="390" width="130" height="30" as="geometry" />
        </mxCell>
        <mxCell id="cfC-acPJ0kE-Bvzq7KKX-16" value="Fin" style="ellipse;whiteSpace=wrap;html=1;" vertex="1" parent="WIyWlLk6GJQsqaUBKTNV-1">
          <mxGeometry x="325" y="480" width="160" height="80" as="geometry" />
        </mxCell>
      </root>
    </mxGraphModel>
  </diagram>
</mxfile>
